<svg width="24" height="23" viewBox="0 0 24 23" fill="none" xmlns="http://www.w3.org/2000/svg">
    <path fill-rule="evenodd" clip-rule="evenodd"
        d="M12.0099 0C5.36875 0 0 5.27081 0 11.7915C0 17.0039 3.43994 21.416 8.21205 22.9776C8.80869 23.095 9.02724 22.7239 9.02724 22.4117C9.02724 22.1384 9.00757 21.2014 9.00757 20.2251C5.6667 20.928 4.97099 18.8194 4.97099 18.8194C4.43409 17.4529 3.63858 17.1016 3.63858 17.1016C2.54511 16.3793 3.71823 16.3793 3.71823 16.3793C4.93117 16.4574 5.56763 17.5897 5.56763 17.5897C6.64118 19.3856 8.37111 18.8781 9.06706 18.5657C9.16638 17.8043 9.48473 17.2772 9.82275 16.9845C7.15817 16.7111 4.35469 15.696 4.35469 11.1667C4.35469 9.87822 4.8316 8.82406 5.58729 8.00421C5.46807 7.71144 5.0504 6.50083 5.70677 4.88053C5.70677 4.88053 6.72083 4.56812 9.00732 6.0909C9.98625 5.83279 10.9958 5.70149 12.0099 5.70038C13.024 5.70038 14.0577 5.83718 15.0123 6.0909C17.299 4.56812 18.3131 4.88053 18.3131 4.88053C18.9695 6.50083 18.5515 7.71144 18.4323 8.00421C19.2079 8.82406 19.6652 9.87822 19.6652 11.1667C19.6652 15.696 16.8617 16.6915 14.1772 16.9845C14.6148 17.3553 14.9924 18.058 14.9924 19.1709C14.9924 20.7521 14.9727 22.0212 14.9727 22.4115C14.9727 22.7239 15.1915 23.095 15.7879 22.9779C20.56 21.4158 23.9999 17.0039 23.9999 11.7915C24.0196 5.27081 18.6312 0 12.0099 0Z"
        fill="white" />
</svg>
    