<svg width="24" height="24" viewBox="0 0 24 24" fill="none" xmlns="http://www.w3.org/2000/svg">
    <path
        d="M21.5835 0.752991H2.41353C2.40753 0.752991 2.40078 0.752991 2.39328 0.752991C1.49403 0.752991 0.764284 1.47599 0.753784 2.37224V21.6262C0.764284 22.5232 1.49403 23.247 2.39328 23.247C2.40078 23.247 2.40753 23.247 2.41503 23.247H21.5813C21.5873 23.247 21.5948 23.247 21.6023 23.247C22.5023 23.247 23.2335 22.5247 23.2478 21.6277V21.6262V2.37374C23.2335 1.47599 22.5023 0.752991 21.6015 0.752991C21.594 0.752991 21.5873 0.752991 21.5798 0.752991H21.5835ZM7.42503 19.9215H4.08453V9.18824H7.42503V19.9215ZM5.75553 7.71974C4.68678 7.71974 3.82128 6.85349 3.82128 5.78549C3.82128 4.71749 4.68753 3.85124 5.75553 3.85124C6.82353 3.85124 7.68978 4.71674 7.68978 5.78474C7.68978 5.78549 7.68978 5.78624 7.68978 5.78774C7.68978 6.85499 6.82428 7.72049 5.75703 7.72049C5.75628 7.72049 5.75553 7.72049 5.75478 7.72049L5.75553 7.71974ZM19.917 19.9215H16.5863V14.7022C16.5863 13.4572 16.5608 11.856 14.8508 11.856C13.1138 11.856 12.849 13.2105 12.849 14.6107V19.9222H9.51828V9.18899H12.7178V10.6522H12.7613C13.3823 9.60599 14.5058 8.91599 15.7905 8.91599C15.8363 8.91599 15.8813 8.91674 15.9263 8.91824H15.9195C19.2945 8.91824 19.9185 11.1397 19.9185 14.031V19.9222L19.917 19.9215Z"
        fill="white" />
</svg>
    