<svg width="150" height="22" viewBox="0 0 150 22" fill="none" xmlns="http://www.w3.org/2000/svg">
    <g clip-path="url(#clip0_165_3)">
        <g clip-path="url(#clip1_165_3)">
            <g clip-path="url(#clip2_165_3)">
                <path
                    d="M29.6758 1.42647C29.6758 0.63865 29.2104 0 28.6363 0C28.0621 0 27.5967 0.63865 27.5967 1.42647V20.6407C27.5967 21.4286 28.0621 22.0672 28.6363 22.0672C29.2104 22.0672 29.6758 21.4286 29.6758 20.6407V1.42647Z"
                    fill="white" />
                <g clip-path="url(#clip3_165_3)">
                    <g clip-path="url(#clip4_165_3)">
                        <g clip-path="url(#clip5_165_3)">
                            <g clip-path="url(#clip6_165_3)">
                                <path
                                    d="M43.3864 6.19047V8.32088H39.9564V21.7567H37.2423V8.32088H35.1246V6.19047H37.2423V5.08265C37.2423 3.34045 37.7155 2.06599 38.662 1.25928C39.6045 0.456349 41.1196 0.0548859 43.2074 0.0548859V2.2137C42.0144 2.2137 41.1753 2.43526 40.6901 2.87839C40.201 3.3253 39.9564 4.06006 39.9564 5.08265V6.19047H43.3864ZM47.9497 3.66238C47.4327 3.66238 46.9953 3.49195 46.6374 3.15108C46.2795 2.81022 46.1005 2.3936 46.1005 1.90124C46.1005 1.40888 46.2795 0.992266 46.6374 0.6514C46.9953 0.310535 47.4327 0.140103 47.9497 0.140103C48.4468 0.140103 48.8683 0.310535 49.2143 0.6514C49.5643 0.992266 49.7392 1.40888 49.7392 1.90124C49.7392 2.3936 49.5643 2.81022 49.2143 3.15108C48.8683 3.49195 48.4468 3.66238 47.9497 3.66238ZM46.5479 6.19047H49.262V21.7567H46.5479V6.19047ZM56.5932 8.71855C57.0704 7.82852 57.7524 7.13732 58.6392 6.64496C59.5261 6.15259 60.6038 5.90641 61.8724 5.90641V8.57653H61.1625C58.1163 8.57653 56.5932 10.1483 56.5932 13.2918V21.7567H53.8791V6.19047H56.5932V8.71855ZM79.9169 13.3771C79.9169 13.8694 79.8871 14.3902 79.8274 14.9394H66.7638C66.8632 16.4732 67.416 17.6701 68.4221 18.5298C69.4242 19.3933 70.6411 19.8251 72.0728 19.8251C73.2459 19.8251 74.2262 19.5638 75.0136 19.0411C75.797 18.5222 76.3478 17.8272 76.6659 16.9561H79.5888C79.1514 18.4522 78.2765 19.6698 76.9642 20.6091C75.6518 21.5446 74.0214 22.0123 72.0728 22.0123C70.5218 22.0123 69.1359 21.6809 67.915 21.0181C66.6902 20.3553 65.7298 19.4123 65.0339 18.1889C64.3379 16.9694 63.99 15.5548 63.99 13.9452C63.99 12.3355 64.328 10.9247 65.0041 9.71275C65.6801 8.50078 66.6306 7.56719 67.8554 6.91197C69.0763 6.26054 70.4821 5.93482 72.0728 5.93482C73.6237 5.93482 74.9957 6.25675 76.1887 6.9006C77.3817 7.54446 78.3024 8.42882 78.9506 9.55368C79.5948 10.6823 79.9169 11.9568 79.9169 13.3771ZM77.1133 12.8373C77.1133 11.8526 76.8846 11.0042 76.4273 10.2922C75.97 9.58397 75.3496 9.04427 74.5662 8.67311C73.7788 8.30573 72.9079 8.12204 71.9535 8.12204C70.5815 8.12204 69.4143 8.53865 68.4519 9.37188C67.4856 10.2051 66.9328 11.3603 66.7936 12.8373H77.1133ZM90.1472 6.19047V8.32088H86.7172V21.7567H84.0031V8.32088H81.8854V6.19047H84.0031V5.08265C84.0031 3.34045 84.4763 2.06599 85.4228 1.25928C86.3653 0.456349 87.8804 0.0548859 89.9682 0.0548859V2.2137C88.7752 2.2137 87.9361 2.43526 87.4509 2.87839C86.9618 3.3253 86.7172 4.06006 86.7172 5.08265V6.19047H90.1472ZM100.437 22.0123C98.906 22.0123 97.5181 21.6809 96.2734 21.0181C95.0326 20.3553 94.0583 19.4123 93.3504 18.1889C92.6466 16.9694 92.2946 15.5548 92.2946 13.9452C92.2946 12.3545 92.6565 10.9474 93.3803 9.72411C94.108 8.50457 95.0982 7.56719 96.3509 6.91197C97.6036 6.26054 99.0054 5.93482 100.556 5.93482C102.107 5.93482 103.509 6.26054 104.762 6.91197C106.014 7.56719 107.003 8.50078 107.726 9.71275C108.454 10.9247 108.818 12.3355 108.818 13.9452C108.818 15.5548 108.444 16.9694 107.697 18.1889C106.953 19.4123 105.945 20.3553 104.672 21.0181C103.4 21.6809 101.988 22.0123 100.437 22.0123ZM100.437 19.7399C101.411 19.7399 102.326 19.5221 103.181 19.0866C104.036 18.651 104.726 17.9977 105.251 17.1266C105.78 16.2555 106.044 15.195 106.044 13.9452C106.044 12.6953 105.786 11.6348 105.269 10.7637C104.752 9.89265 104.076 9.24311 103.241 8.81513C102.406 8.39094 101.501 8.17885 100.527 8.17885C99.5323 8.17885 98.6216 8.39094 97.7945 8.81513C96.9713 9.24311 96.3111 9.89265 95.814 10.7637C95.3169 11.6348 95.0684 12.6953 95.0684 13.9452C95.0684 15.2139 95.311 16.2839 95.7961 17.155C96.2853 18.0261 96.9375 18.6756 97.7527 19.1036C98.568 19.5278 99.4627 19.7399 100.437 19.7399ZM115.111 8.71855C115.589 7.82852 116.269 7.13732 117.151 6.64496C118.038 6.15259 119.118 5.90641 120.39 5.90641V8.57653H119.675C116.632 8.57653 115.111 10.1483 115.111 13.2918V21.7567H112.397V6.19047H115.111V8.71855ZM143.171 5.90641C144.444 5.90641 145.577 6.15638 146.571 6.65632C147.566 7.16004 148.351 7.91373 148.928 8.91739C149.504 9.92105 149.793 11.1425 149.793 12.5817V21.7567H147.108V12.951C147.108 11.3981 146.707 10.2089 145.903 9.38324C145.096 8.56138 144.006 8.15044 142.634 8.15044C141.223 8.15044 140.099 8.58031 139.264 9.44005C138.429 10.3036 138.012 11.5496 138.012 13.1782V21.7567H135.327V12.951C135.327 11.3981 134.926 10.2089 134.122 9.38324C133.315 8.56138 132.225 8.15044 130.853 8.15044C129.442 8.15044 128.318 8.58031 127.483 9.44005C126.648 10.3036 126.23 11.5496 126.23 13.1782V21.7567H123.516V6.19047H126.23V8.4345C126.767 7.62021 127.489 6.99529 128.396 6.55974C129.298 6.12419 130.297 5.90641 131.39 5.90641C132.762 5.90641 133.975 6.19994 135.029 6.78698C136.083 7.37403 136.868 8.23566 137.385 9.37188C137.842 8.27354 138.598 7.42137 139.652 6.81539C140.706 6.20941 141.879 5.90641 143.171 5.90641Z"
                                    fill="white" />
                            </g>
                        </g>
                    </g>
                </g>
                <g clip-path="url(#clip7_165_3)">
                    <g clip-path="url(#clip8_165_3)">
                        <path
                            d="M19.1677 4.15746C21.0198 6.04191 22.1538 8.57542 22.1538 11.3601C22.1538 17.1811 17.1988 21.9025 11.0867 21.9025C4.97465 21.9025 0.0196533 17.1879 0.0196533 11.3671C0.0196533 9.59508 0.478813 7.93499 1.28963 6.46941L1.29036 6.4827C1.2502 6.76724 1.22938 7.0639 1.22938 7.35893C1.22938 8.9747 1.85066 10.6961 2.87771 11.629H2.87722C2.47413 10.6961 2.25227 9.66808 2.25227 8.59361C2.25251 5.40941 4.20229 2.53353 7.02679 1.36741C5.35814 2.53353 4.29853 4.68082 4.29853 6.92723C4.29853 10.9821 7.75018 14.2148 12.008 14.2148C16.2661 14.2148 19.7177 10.9326 19.7177 6.87779C19.7177 5.91457 19.523 4.99754 19.1689 4.1549M18.6608 6.00413C18.3498 8.696 15.9541 10.7896 13.0451 10.7896C9.92476 10.7896 7.39534 8.38068 7.39534 5.40918C7.39534 2.85304 9.267 0.712982 11.7766 0.164673L11.7643 0.167005C8.15718 0.275454 5.26778 3.0949 5.26778 6.55687C5.26778 10.0874 8.27276 12.9493 11.9798 12.9493C15.6874 12.9493 18.6926 10.0874 18.6926 6.55687C18.6926 6.36003 18.6831 6.16552 18.6649 5.97334M9.18006 7.31065C9.92255 8.81331 11.5265 9.85512 13.386 9.85512C15.9519 9.85512 18.0319 7.95831 18.0319 5.51506C18.0319 5.09806 17.9714 4.86576 17.8578 4.39932H17.8585C17.2155 6.49833 15.002 8.33007 12.3707 8.33007C11.1952 8.33007 10.1033 7.94222 9.19745 7.35939"
                            fill="#FF0033" />
                    </g>
                </g>
            </g>
        </g>
    </g>
    <defs>
        <clipPath id="clip0_165_3">
            <rect width="150" height="22" fill="white" transform="translate(-0.0909424 0.0335999)" />
        </clipPath>
        <clipPath id="clip1_165_3">
            <rect width="149.779" height="22.0672" fill="white" transform="translate(0.0196533)" />
        </clipPath>
        <clipPath id="clip2_165_3">
            <rect width="149.779" height="22.0672" fill="white" transform="translate(0.0196533)" />
        </clipPath>
        <clipPath id="clip3_165_3">
            <rect width="114.68" height="21.9574" fill="white"
                transform="translate(35.1185 0.0548859)" />
        </clipPath>
        <clipPath id="clip4_165_3">
            <rect width="114.68" height="21.9574" fill="white"
                transform="translate(35.1185 0.0548859)" />
        </clipPath>
        <clipPath id="clip5_165_3">
            <rect width="114.68" height="21.9574" fill="white"
                transform="translate(35.1185 0.0548859)" />
        </clipPath>
        <clipPath id="clip6_165_3">
            <rect width="114.68" height="21.9574" fill="white"
                transform="translate(35.1185 0.0548859)" />
        </clipPath>
        <clipPath id="clip7_165_3">
            <rect width="22.1342" height="21.7379" fill="white"
                transform="translate(0.0196533 0.164673)" />
        </clipPath>
        <clipPath id="clip8_165_3">
            <rect width="22.1342" height="21.7379" fill="white"
                transform="translate(0.0196533 0.164673)" />
        </clipPath>
    </defs>
</svg>
    