<svg width="201" height="27" viewBox="0 0 201 27" fill="none" xmlns="http://www.w3.org/2000/svg">
    <g clip-path="url(#clip0_2_40)">
        <g clip-path="url(#clip1_2_40)">
            <g clip-path="url(#clip2_2_40)">
                <path
                    d="M65.6647 2.28264C65.6647 1.17543 65.1499 0.27787 64.5149 0.27787C63.8799 0.27787 63.3651 1.17543 63.3651 2.28264V23.9C63.3651 25.0072 63.8799 25.9048 64.5149 25.9048C65.1499 25.9048 65.6647 25.0072 65.6647 23.9V2.28264Z"
                    fill="#252422" />
                <g clip-path="url(#clip3_2_40)">
                    <g clip-path="url(#clip4_2_40)">
                        <g clip-path="url(#clip5_2_40)">
                            <g clip-path="url(#clip6_2_40)">
                                <path
                                    d="M77.3652 25.4405H74.3614V11.3224H71.6913V8.71905H74.3614V6.6831C74.3614 4.72503 74.9065 3.1786 75.9968 2.04381C77.0871 0.909017 78.5112 0.341621 80.269 0.341621C81.1813 0.341621 81.9823 0.446199 82.6721 0.655356C83.3618 0.868964 84.0182 1.13152 84.6413 1.44304L83.7401 3.97963C83.2728 3.73487 82.7722 3.51236 82.2382 3.3121C81.7042 3.11185 81.1145 3.01172 80.4692 3.01172C79.5347 3.01172 78.7848 3.30765 78.2197 3.89953C77.6501 4.48695 77.3652 5.34805 77.3652 6.48285V8.71905H82.5052V11.3224H77.3652V25.4405ZM92.4513 25.8411C90.8047 25.8411 89.3251 25.4561 88.0123 24.6862C86.6995 23.9208 85.6692 22.8528 84.9216 21.4821C84.1784 20.1159 83.8069 18.5428 83.8069 16.7627C83.8069 14.8937 84.1851 13.2805 84.9416 11.9232C85.6982 10.5659 86.7328 9.52008 88.0456 8.78581C89.3584 8.05153 90.827 7.68439 92.4513 7.68439C94.0756 7.68439 95.5375 8.05153 96.8369 8.78581C98.1408 9.52008 99.1755 10.5592 99.9409 11.9031C100.711 13.2515 101.096 14.8492 101.096 16.696C101.096 18.5428 100.717 20.1493 99.9609 21.5155C99.2044 22.8861 98.1742 23.9497 96.8703 24.7063C95.5709 25.4628 94.0979 25.8411 92.4513 25.8411ZM92.4513 23.171C94.2091 23.171 95.5775 22.5746 96.5566 21.382C97.5356 20.1938 98.0251 18.654 98.0251 16.7627C98.0251 15.6057 97.7804 14.5421 97.2909 13.572C96.8013 12.6063 96.1383 11.8275 95.3016 11.2356C94.4694 10.6482 93.5193 10.3545 92.4513 10.3545C90.6935 10.3545 89.3251 10.933 88.346 12.0901C87.367 13.2471 86.8775 14.7824 86.8775 16.696C86.8775 17.853 87.1222 18.9255 87.6117 19.9134C88.1013 20.9058 88.7621 21.6957 89.5943 22.2832C90.4309 22.875 91.3833 23.171 92.4513 23.171ZM108.105 25.4405H105.101V8.0849H108.005V11.8564C108.294 11.1221 108.683 10.4368 109.173 9.80044C109.662 9.16852 110.274 8.65675 111.008 8.26514C111.743 7.87797 112.599 7.68439 113.578 7.68439C113.912 7.68439 114.246 7.69997 114.58 7.73112C114.914 7.76672 115.192 7.8179 115.414 7.88465L114.513 10.9886C114.09 10.8106 113.59 10.7216 113.011 10.7216C112.188 10.7216 111.402 10.9553 110.655 11.4225C109.912 11.8898 109.3 12.6129 108.819 13.592C108.343 14.571 108.105 15.8171 108.105 17.3301V25.4405ZM121.415 25.4405H118.411V8.0849H121.315V10.9886C121.938 10.0541 122.728 9.26865 123.685 8.63227C124.642 8.00035 125.732 7.68439 126.956 7.68439C128.335 7.68439 129.466 8.01815 130.347 8.68568C131.223 9.3532 131.84 10.2432 132.196 11.3558C132.885 10.3322 133.704 9.46446 134.652 8.75243C135.596 8.0404 136.768 7.68439 138.17 7.68439C140.061 7.68439 141.47 8.27849 142.395 9.46668C143.317 10.6593 143.777 12.2124 143.777 14.126V25.4405H140.773V14.3596C140.773 13.1581 140.495 12.1835 139.939 11.4359C139.383 10.6927 138.615 10.3211 137.636 10.3211C136.635 10.3211 135.707 10.6927 134.852 11.4359C133.994 12.1835 133.241 13.058 132.596 14.0592V25.4405H129.592V14.3596C129.592 13.1581 129.314 12.1835 128.758 11.4359C128.202 10.6927 127.434 10.3211 126.455 10.3211C125.476 10.3211 124.553 10.6816 123.685 11.4025C122.817 12.1279 122.06 12.9801 121.415 13.9591V25.4405ZM152.455 25.4405H149.284V2.07718H163.135V4.81403H152.455V11.9565H161.367V14.5599H152.455V25.4405ZM168.976 25.4405H165.972V8.0849H168.976V25.4405ZM167.474 5.11442C166.896 5.11442 166.4 4.90304 165.986 4.48027C165.576 4.05751 165.372 3.56799 165.372 3.01172C165.372 2.36645 165.561 1.85467 165.939 1.47641C166.317 1.09815 166.829 0.909016 167.474 0.909016C168.053 0.909016 168.547 1.11372 168.956 1.52314C169.37 1.937 169.577 2.4332 169.577 3.01172C169.577 3.63474 169.388 4.13983 169.01 4.527C168.631 4.91861 168.12 5.11442 167.474 5.11442ZM177.32 25.4405H174.317V8.0849H177.22V11.8564C177.51 11.1221 177.899 10.4368 178.388 9.80044C178.878 9.16852 179.49 8.65675 180.224 8.26514C180.958 7.87797 181.815 7.68439 182.794 7.68439C183.128 7.68439 183.462 7.69997 183.795 7.73112C184.129 7.76672 184.407 7.8179 184.63 7.88465L183.729 10.9886C183.306 10.8106 182.805 10.7216 182.227 10.7216C181.403 10.7216 180.618 10.9553 179.87 11.4225C179.127 11.8898 178.515 12.6129 178.035 13.592C177.558 14.571 177.32 15.8171 177.32 17.3301V25.4405ZM193.568 25.8411C191.076 25.8411 189.102 25.0445 187.647 23.4513C186.187 21.8626 185.457 19.6331 185.457 16.7627C185.457 15.0272 185.787 13.4741 186.445 12.1034C187.1 10.7372 188.016 9.65804 189.196 8.86591C190.375 8.07823 191.743 7.68439 193.301 7.68439C194.97 7.68439 196.356 8.04485 197.46 8.76578C198.559 9.49116 199.387 10.4657 199.943 11.6895C200.499 12.9133 200.777 14.2595 200.777 15.7281C200.777 16.5068 200.744 17.2634 200.677 17.9976H188.528C188.728 19.622 189.296 20.8902 190.23 21.8025C191.165 22.7148 192.4 23.171 193.935 23.171C194.936 23.171 195.837 23.0642 196.639 22.8505C197.44 22.6414 198.207 22.3699 198.941 22.0362L199.642 24.6061C198.841 24.9621 197.94 25.2581 196.939 25.4939C195.938 25.7254 194.814 25.8411 193.568 25.8411ZM188.495 15.5612H198.007C198.007 13.8701 197.584 12.5684 196.739 11.6562C195.893 10.7439 194.725 10.2877 193.234 10.2877C191.944 10.2877 190.876 10.7372 190.03 11.6361C189.185 12.5395 188.673 13.8479 188.495 15.5612Z"
                                    fill="#252422" />
                            </g>
                        </g>
                    </g>
                </g>
                <g clip-path="url(#clip7_2_40)">
                    <g clip-path="url(#clip8_2_40)">
                        <path
                            d="M47.721 22.883C46.545 21.2813 45.0617 20.002 43.4473 18.8615C42.5887 18.257 41.6618 17.7571 40.8355 17.102C39.9567 16.4043 39.0608 15.727 38.1566 15.0643C35.6995 13.2591 33.1631 11.5667 30.6736 9.80653C29.6351 9.07154 29.1675 7.99376 29.0978 6.74428C29.0681 6.20317 29.3247 5.99662 29.8867 6.04857C30.3936 6.09609 30.8954 6.17466 31.3814 6.32926C32.252 6.60742 33.1397 6.7899 34.0584 6.7956C34.5083 6.79814 34.9372 6.69105 35.3072 6.44901C36.169 5.88953 36.8938 5.18116 37.4748 4.33085C37.4881 4.31311 37.4634 4.26939 37.4482 4.20349C36.8431 4.20349 36.2298 4.213 35.6171 4.19842C35.401 4.19335 35.261 4.27319 35.1172 4.42272C34.7193 4.83774 34.2206 5.08928 33.6719 5.23628C32.5586 5.53281 31.5201 5.22741 30.3847 4.81873C31.3814 4.72052 32.3571 5.01895 33.2024 4.18195C32.4794 4.18195 31.8724 4.15914 31.2667 4.18765C30.6654 4.2168 30.1724 4.68124 29.5357 4.62991C30.2301 5.08738 30.8967 5.53788 31.5024 6.09356C31.1698 6.05301 30.8612 5.91361 30.5444 5.89587C30.0673 5.86799 29.7853 5.58223 29.5014 5.26859C29.4317 5.18939 29.3709 5.10385 29.3019 5.02465C28.6999 4.33972 28.1677 3.59205 27.458 3.00596C27.3294 2.90015 27.2217 2.72654 26.9784 2.84566C27.619 3.64211 28.0631 4.55071 28.577 5.41813C28.5542 5.44854 28.5314 5.47895 28.5092 5.5081C27.8864 5.46565 27.3947 5.22297 27.0006 4.78578C26.9106 4.68567 26.8244 4.57479 26.744 4.45313C26.4728 4.04509 26.2491 3.59775 25.9507 3.22519C25.5344 2.70373 25.1517 2.16072 24.757 1.62595C24.6226 1.44411 24.4509 1.34716 24.2501 1.2743C23.6266 1.04683 22.9993 0.826965 22.3815 0.585558C21.5281 0.251011 20.6581 0.347955 19.7875 0.463906C19.1869 0.543741 18.8802 0.950519 18.9461 1.62849C18.9968 2.15248 19.038 2.68535 18.9556 3.20492C18.8701 3.74602 18.9613 4.25988 19.1165 4.75917C19.401 5.67601 19.7248 6.58081 20.0422 7.48814C20.4015 8.51459 20.7893 9.53978 21.407 10.4338C22.6876 12.2871 24.1506 13.9972 25.8677 15.4596C27.8832 17.178 29.9564 18.8279 31.9884 20.5279C33.172 21.5189 34.348 22.5244 35.3351 23.7219C35.7755 24.2548 36.1664 24.8111 36.0803 25.5683C36.2475 25.581 36.3857 25.5993 36.5244 25.6006C37.6478 25.6171 38.7718 25.6323 39.8952 25.6443C40.4002 25.65 40.4281 25.6082 40.3622 25.1032C40.3343 24.891 40.2551 24.699 40.1639 24.5089C39.989 24.1427 39.7514 23.8189 39.498 23.5027C38.5982 22.3838 37.4634 21.5189 36.3533 20.6343C33.9272 18.6993 31.4663 16.8086 29.0326 14.883C28.1113 14.1557 27.1514 13.4694 26.3359 12.6166C25.4869 11.7283 24.6955 10.7899 23.9142 9.84011C23.3022 9.09688 22.8827 8.28459 22.6033 7.35888C22.3207 6.4224 22.4449 5.55689 22.7851 4.69454C23.0139 4.11668 23.4466 3.93357 24.0486 4.11415C24.5504 4.26622 25.0509 4.42525 25.5458 4.59696C26.0514 4.77247 26.5494 4.97016 27.0513 5.15771C26.9005 5.22741 26.7649 5.22677 26.6286 5.22741C25.7391 5.23311 25.5623 5.38454 25.2886 6.23042C25.1517 6.65304 25.2467 7.02434 25.4184 7.39373C25.5591 7.6966 25.7181 7.98933 25.8848 8.27635C26.6039 9.51443 27.4606 10.6581 28.5859 11.5414C32.2406 14.4097 36.0746 17.0386 39.7666 19.8575C40.8267 20.6673 41.8905 21.4707 42.8105 22.4439C43.6792 23.3627 44.5136 24.3074 44.5719 25.7413C45.8696 25.7413 47.133 25.7413 48.3952 25.7419C48.8837 25.7419 48.9084 25.7128 48.8286 25.235C48.6809 24.3486 48.2399 23.5927 47.721 22.883Z"
                            fill="#EB5E28" />
                        <path
                            d="M14.8055 22.3179C14.2555 21.2439 13.6637 20.1914 13.1346 19.108C12.1506 17.0899 11.3244 15.0383 11.1147 12.7516C10.9138 10.5605 11.154 8.45313 11.7565 6.36158C11.9244 5.77929 12.1418 5.2141 12.368 4.65525C12.0961 4.51079 11.9365 4.67236 11.7616 4.78134C10.9436 5.29267 10.1959 5.90981 9.37794 6.4148C8.5384 6.93373 7.86804 7.59269 7.34214 8.41448C7.02533 8.90807 6.58433 9.31485 6.33659 9.85658C6.54442 9.86862 6.67304 9.7381 6.79976 9.61454C6.81624 9.5987 6.83271 9.5835 6.84982 9.56703C6.85109 9.56576 6.85299 9.56512 6.85425 9.56322C6.87453 9.54485 6.89544 9.52774 6.91571 9.51C7.88071 8.7503 8.74939 7.87971 9.67763 7.07883C9.81196 6.96287 9.92538 6.79687 10.1224 6.78166C10.2282 6.97935 10.0774 7.03701 9.99888 7.10861C8.82479 8.16801 7.79897 9.3668 6.74717 10.5428C6.02295 11.3532 5.29493 12.1693 4.42815 12.8295C3.79327 13.3136 3.2604 13.8674 2.7985 14.5149C2.00268 15.6294 1.16884 16.718 0.34071 17.8312C0.41421 17.8445 0.457929 17.8674 0.478204 17.8534C0.596057 17.778 0.70884 17.695 0.820989 17.6114C2.64896 16.2491 4.18484 14.5973 5.57689 12.8048C6.23205 11.9621 6.88023 11.1143 7.53159 10.2691C7.56327 10.3198 7.59495 10.3704 7.62663 10.4211C7.12861 11.2214 6.63122 12.0235 6.13257 12.8232C4.71074 15.1035 3.14255 17.2705 1.27973 19.2182C0.963552 19.5471 0.636608 19.8639 0.307129 20.1781V23.1194C0.493411 22.8273 0.675258 22.5326 0.902092 22.271C1.89243 21.1317 2.81117 19.9386 3.60192 18.6518C5.05923 16.2833 6.33976 13.8173 7.58354 11.3329C8.04418 10.4116 8.546 9.51507 9.1473 8.6768C9.18278 8.70214 9.21827 8.72685 9.25375 8.7522C9.0776 9.11462 8.88308 9.46945 8.72975 9.84011C7.8636 11.9399 6.96133 14.0245 6.22761 16.1775C5.82653 17.3529 5.3735 18.5092 4.84507 19.6326C4.70124 19.9399 4.61253 20.2529 4.56501 20.583C4.52446 20.8605 4.48834 21.1381 4.44399 21.415C4.21589 22.833 3.70583 24.1129 2.62425 25.1108C2.60651 25.1267 2.61855 25.1761 2.61411 25.2578C3.91429 25.2578 5.21066 25.2515 6.50767 25.2642C6.73323 25.2654 6.86122 25.1577 6.98921 25.005C7.51638 24.3727 7.74828 23.6332 7.792 22.8247C7.84142 21.9275 7.75082 21.0361 7.6412 20.1477C7.49991 18.9996 7.36621 17.8743 7.66781 16.7116C8.02644 15.3247 8.10691 13.8743 8.5365 12.4981C8.9984 11.0142 9.3849 9.5024 10.0204 8.07677C10.3017 7.44632 10.6135 6.82982 11.0323 6.25703C11.1755 6.4921 11.019 6.66064 10.9525 6.82602C10.3543 8.29156 9.99571 9.82364 9.71882 11.3747C9.44003 12.9378 9.5167 14.5244 9.47868 16.1021C9.47551 16.206 9.49452 16.3131 9.51986 16.4138C9.70615 17.1615 9.88863 17.9092 10.0882 18.653C10.4291 19.919 10.9201 21.14 11.2275 22.4154C11.4613 23.3842 11.6133 24.3549 10.9182 25.2268C10.9081 25.2401 10.9366 25.2832 10.9588 25.3459C12.176 25.3459 13.4045 25.3446 14.6325 25.3459C15.166 25.3459 15.2566 25.2749 15.3871 24.768C15.4448 24.5437 15.4568 24.3226 15.4258 24.0913C15.3402 23.4571 15.0931 22.878 14.8055 22.3179Z"
                            fill="#EB5E28" />
                        <path
                            d="M6.32977 9.86557C6.32977 9.86557 6.33105 9.86557 6.33233 9.86429C6.33362 9.86172 6.33554 9.85916 6.33618 9.85596C6.33105 9.85532 6.32593 9.85532 6.3208 9.85532C6.32465 9.85916 6.32657 9.863 6.32977 9.86557Z"
                            fill="#EB5E28" />
                        <path
                            d="M6.31947 9.92628C6.32707 9.92438 6.33278 9.92121 6.33658 9.91678C6.33911 9.91361 6.33975 9.90981 6.34038 9.90664C6.34101 9.90537 6.34228 9.90411 6.34291 9.90157C6.34291 9.8965 6.34291 9.89207 6.34038 9.88637V9.8851C6.33848 9.87876 6.33468 9.87243 6.32961 9.86546C6.30616 9.87749 6.28272 9.89017 6.25928 9.90284C6.27955 9.91171 6.303 9.93199 6.31947 9.92628Z"
                            fill="#EB5E28" />
                        <path
                            d="M57.3298 25.4992C57.2449 24.9784 57.134 24.4563 56.9059 23.9881C56.4528 23.0649 56.4535 22.0974 56.5225 21.114C56.5846 20.2035 56.6093 19.2917 56.5897 18.3793C56.5827 18.0784 56.4877 17.8534 56.3014 17.6234C55.5404 16.6844 54.8061 15.7232 54.0445 14.7836C53.6966 14.3552 53.3925 13.887 52.9838 13.4973C52.8761 13.6355 52.9217 13.7609 52.9109 13.8756C52.8394 14.6283 52.5175 14.8989 51.7711 14.8368C51.3269 14.7994 50.9214 14.6334 50.5273 14.4477C49.6276 14.0207 48.7443 13.5588 47.8389 13.1469C45.9773 12.2998 44.0454 11.6294 42.111 10.9724C41.2917 10.6942 40.6828 10.2545 40.4389 9.39532C40.3876 9.21791 40.2856 9.08928 40.1246 8.99424C39.9973 8.91947 39.8408 8.86625 39.8021 8.77754C40.5206 7.25497 41.2144 5.78562 41.9412 4.24721C41.248 4.24721 40.6524 4.26432 40.0587 4.24024C39.7742 4.22757 39.6228 4.32008 39.486 4.56972C38.9208 5.59427 38.3321 6.60488 37.753 7.62057C37.4812 8.09831 37.4825 8.09958 36.9623 8.00074C36.4978 7.91203 36.0321 7.83409 35.5715 7.72701C35.2756 7.65732 34.9816 7.65859 34.6838 7.65225C34.4006 7.64528 34.1839 7.7606 33.99 7.9982C34.3714 8.33338 34.7915 8.58176 35.2015 8.83457C36.271 9.49163 37.3146 10.1854 38.4931 10.6632C39.3934 11.0275 40.3198 11.3912 40.9692 12.1883C41.9152 13.3491 43.0969 14.2754 44.136 15.3437C44.5308 15.7486 44.9876 16.0603 45.4742 16.3486C47.811 17.7286 49.8588 19.4298 51.3592 21.7242C52.1386 22.9141 52.8615 24.1325 53.0123 25.5917C53.0358 25.8084 53.1878 25.7729 53.3215 25.7748C54.5666 25.7964 55.8123 25.8059 57.0579 25.8407C57.3526 25.8477 57.3691 25.7387 57.3298 25.4992Z"
                            fill="#EB5E28" />
                        <path
                            d="M31.664 24.2814C31.415 23.8556 31.1102 23.471 30.7788 23.1073C29.5465 21.7546 28.1544 20.5723 26.7757 19.3754C24.9186 17.7653 23.0564 16.1642 21.4913 14.2513C20.5124 13.0538 19.5905 11.8303 18.9816 10.3907C18.3474 8.89413 17.7948 7.36459 17.1847 5.85849C17.0858 5.61455 17.0484 5.35477 17.032 5.08928C16.9927 4.45947 16.935 3.83156 16.8761 3.20302C16.7912 2.28238 16.9673 1.39278 17.5053 0.605203C17.5503 0.539307 17.6371 0.479114 17.5218 0.341619C17.1581 0.562117 16.7969 0.801622 16.4174 1.00691C15.7331 1.37631 15.3706 1.95923 15.2312 2.7031C15.2122 2.80764 15.1989 2.91155 15.1894 3.01547C15.1083 3.94624 15.2205 4.87132 15.2509 5.79893C15.2781 6.65937 15.5012 7.45329 15.8148 8.23961C16.2488 9.32689 16.6474 10.4287 17.0985 11.5097C17.5167 12.5102 17.99 13.4859 18.6147 14.3819C19.8142 16.1027 21.2246 17.638 22.7149 19.1048C23.9415 20.3099 25.2126 21.472 26.3607 22.7569C26.7826 23.2277 27.1901 23.7131 27.4777 24.2783C27.6608 24.6343 27.8262 25.0082 27.588 25.5474C28.9065 25.5474 30.1338 25.5474 31.3599 25.548C31.9618 25.548 32.0885 25.3839 31.9086 24.8023C31.8516 24.6217 31.7616 24.4455 31.664 24.2814Z"
                            fill="#EB5E28" />
                        <path
                            d="M22.9227 23.2613C22.0439 22.0067 20.9598 20.9252 19.9606 19.7726C18.6972 18.3134 17.4521 16.8396 16.4998 15.1492C15.6926 13.7121 15.0773 12.1876 14.5571 10.629C14.2967 9.85152 14.0021 9.07978 13.8899 8.25988C13.6726 6.67902 13.8545 5.10956 14.0015 3.53693C14.0249 3.27968 14.2454 3.08326 14.2042 2.81461C14.099 2.80701 14.0477 2.85263 13.9926 2.89571C13.3064 3.45076 12.9275 4.18512 12.7678 5.03542C12.6544 5.63799 12.5771 6.24753 12.4738 6.85199C12.2907 7.91393 12.2267 8.986 12.3902 10.0486C12.7089 12.1376 13.3444 14.129 14.2777 16.0299C15.2022 17.9123 16.4181 19.6016 17.6308 21.2965C18.17 22.0511 18.739 22.7874 19.142 23.6294C19.4056 24.1781 19.5583 24.7421 19.2148 25.4466C20.5777 25.4466 21.8405 25.4479 23.1027 25.446C23.5278 25.4454 23.6096 25.3586 23.6235 24.9296C23.6318 24.6781 23.5703 24.4411 23.4734 24.2136C23.327 23.8759 23.1344 23.5629 22.9227 23.2613Z"
                            fill="#EB5E28" />
                        <path
                            d="M42.6535 9.62595C43.1432 9.87623 43.6089 9.76408 44.0493 9.50873C44.5321 9.22867 45.0301 8.95432 45.1961 8.34922C45.4914 7.27208 45.7886 6.19493 46.0997 5.12159C46.1561 4.92834 46.1231 4.79718 46.011 4.64132C45.8241 4.38027 45.6169 4.22567 45.2684 4.27255C45.0105 4.30804 44.7418 4.30043 44.4814 4.27192C44.1697 4.23707 44.0246 4.34605 43.915 4.65019C43.4968 5.81603 43.04 6.96858 42.6085 8.12872C42.4469 8.56211 42.2454 8.96192 41.8386 9.28887C42.113 9.48085 42.4051 9.49986 42.6535 9.62595Z"
                            fill="#EB5E28" />
                        <path
                            d="M45.0573 10.1766C44.8426 10.1683 44.6309 10.1461 44.3331 10.2298C45.4591 10.5821 46.4671 11.0085 47.4968 11.3766C47.9574 11.5414 48.4313 11.6687 48.9338 11.6478C49.6225 11.6193 49.9995 11.3107 50.1427 10.6353C50.1681 10.5149 50.1681 10.3895 50.201 10.2716C50.2511 10.0853 50.2086 9.93579 50.0882 9.78562C49.3957 8.92707 48.712 8.06219 47.9846 7.14852C47.8788 7.32593 47.8719 7.46533 47.8471 7.60156C47.7546 8.11858 47.6735 8.63815 47.4885 9.13237C47.2401 9.79259 46.7516 10.1373 46.0566 10.1785C45.7252 10.1994 45.39 10.1911 45.0573 10.1766Z"
                            fill="#EB5E28" />
                        <path
                            d="M9.99194 4.86942C10.528 4.64702 10.9234 4.3733 11.3472 4.13062C10.6427 3.8531 10.3474 4.31184 9.99194 4.86942Z"
                            fill="#EB5E28" />
                    </g>
                </g>
            </g>
        </g>
    </g>
    <defs>
        <clipPath id="clip0_2_40">
            <rect width="200.909" height="25.8503" fill="white"
                transform="translate(0.0909424 0.166189)" />
        </clipPath>
        <clipPath id="clip1_2_40">
            <rect width="200.477" height="25.6269" fill="white"
                transform="translate(0.307129 0.27787)" />
        </clipPath>
        <clipPath id="clip2_2_40">
            <rect width="200.477" height="25.6269" fill="white"
                transform="translate(0.307129 0.27787)" />
        </clipPath>
        <clipPath id="clip3_2_40">
            <rect width="129.099" height="25.4994" fill="white"
                transform="translate(71.6846 0.341619)" />
        </clipPath>
        <clipPath id="clip4_2_40">
            <rect width="129.099" height="25.4994" fill="white"
                transform="translate(71.6846 0.341619)" />
        </clipPath>
        <clipPath id="clip5_2_40">
            <rect width="129.099" height="25.4994" fill="white"
                transform="translate(71.6846 0.341619)" />
        </clipPath>
        <clipPath id="clip6_2_40">
            <rect width="129.099" height="25.4994" fill="white"
                transform="translate(71.6846 0.341619)" />
        </clipPath>
        <clipPath id="clip7_2_40">
            <rect width="57.0382" height="25.4994" fill="white"
                transform="translate(0.307129 0.341619)" />
        </clipPath>
        <clipPath id="clip8_2_40">
            <rect width="57.0382" height="25.4994" fill="white"
                transform="translate(0.307129 0.341619)" />
        </clipPath>
    </defs>
</svg>
    