<svg width="150" height="20" viewBox="0 0 150 20" fill="none" xmlns="http://www.w3.org/2000/svg">
    <g clip-path="url(#clip0_2_40)">
        <g clip-path="url(#clip1_2_40)">
            <g clip-path="url(#clip2_2_40)">
                <path
                    d="M48.9578 1.95131C48.9578 1.12466 48.5735 0.454536 48.0994 0.454536C47.6253 0.454536 47.241 1.12466 47.241 1.95131V18.091C47.241 18.9176 47.6253 19.5878 48.0994 19.5878C48.5735 19.5878 48.9578 18.9176 48.9578 18.091V1.95131Z"
                    fill="#252422" />
                <g clip-path="url(#clip3_2_40)">
                    <g clip-path="url(#clip4_2_40)">
                        <g clip-path="url(#clip5_2_40)">
                            <g clip-path="url(#clip6_2_40)">
                                <path
                                    d="M57.6934 19.2412H55.4507V8.70045H53.4572V6.75678H55.4507V5.23673C55.4507 3.77482 55.8577 2.62024 56.6717 1.773C57.4857 0.925755 58.5489 0.502134 59.8613 0.502134C60.5424 0.502134 61.1405 0.580212 61.6555 0.736371C62.1705 0.895852 62.6605 1.09188 63.1257 1.32446L62.4529 3.21829C62.104 3.03555 61.7302 2.86943 61.3315 2.71992C60.9328 2.5704 60.4926 2.49565 60.0108 2.49565C59.3131 2.49565 58.7533 2.71659 58.3313 3.15849C57.906 3.59706 57.6934 4.23997 57.6934 5.08721V6.75678H61.5309V8.70045H57.6934V19.2412ZM68.9567 19.5402C67.7274 19.5402 66.6226 19.2528 65.6425 18.678C64.6624 18.1065 63.8932 17.3091 63.335 16.2858C62.7801 15.2658 62.5027 14.0912 62.5027 12.7622C62.5027 11.3668 62.7851 10.1624 63.35 9.14899C63.9148 8.13562 64.6873 7.35483 65.6674 6.80662C66.6476 6.2584 67.744 5.98429 68.9567 5.98429C70.1694 5.98429 71.2609 6.2584 72.2311 6.80662C73.2046 7.35483 73.977 8.13064 74.5485 9.13404C75.1233 10.1408 75.4107 11.3336 75.4107 12.7124C75.4107 14.0912 75.1283 15.2907 74.5635 16.3107C73.9986 17.334 73.2295 18.1281 72.256 18.6929C71.2858 19.2578 70.186 19.5402 68.9567 19.5402ZM68.9567 17.5467C70.2691 17.5467 71.2908 17.1014 72.0217 16.211C72.7527 15.3239 73.1182 14.1743 73.1182 12.7622C73.1182 11.8984 72.9354 11.1043 72.57 10.38C72.2045 9.659 71.7094 9.07756 71.0848 8.63566C70.4635 8.19709 69.7541 7.9778 68.9567 7.9778C67.6443 7.9778 66.6226 8.40973 65.8917 9.27359C65.1607 10.1374 64.7953 11.2837 64.7953 12.7124C64.7953 13.5763 64.978 14.377 65.3435 15.1146C65.7089 15.8555 66.2023 16.4452 66.8237 16.8838C67.4483 17.3257 68.1593 17.5467 68.9567 17.5467ZM80.6437 19.2412H78.401V6.28332H80.5689V9.09916C80.7849 8.55094 81.0756 8.03927 81.4411 7.56415C81.8066 7.09235 82.2634 6.71026 82.8116 6.41788C83.3598 6.12882 83.9994 5.98429 84.7304 5.98429C84.9796 5.98429 85.2288 5.99592 85.4779 6.01918C85.7271 6.04576 85.9348 6.08397 86.1009 6.13381L85.4281 8.45126C85.1125 8.31836 84.7387 8.25191 84.3068 8.25191C83.6921 8.25191 83.1057 8.42635 82.5475 8.77521C81.9926 9.12407 81.5358 9.66398 81.1769 10.3949C80.8214 11.1259 80.6437 12.0562 80.6437 13.1859V19.2412ZM90.5813 19.2412H88.3386V6.28332H90.5066V8.45126C90.9717 7.75354 91.5615 7.16711 92.2758 6.69199C92.9902 6.22019 93.8042 5.98429 94.7179 5.98429C95.7479 5.98429 96.5918 6.23348 97.2496 6.73186C97.9042 7.23024 98.3643 7.89474 98.6301 8.72537C99.1451 7.96119 99.7565 7.3133 100.464 6.7817C101.169 6.25009 102.044 5.98429 103.091 5.98429C104.503 5.98429 105.554 6.42785 106.245 7.31496C106.933 8.2054 107.277 9.36496 107.277 10.7936V19.2412H105.034V10.9681C105.034 10.071 104.827 9.34336 104.411 8.78518C103.996 8.23032 103.423 7.95289 102.692 7.95289C101.944 7.95289 101.252 8.23032 100.614 8.78518C99.9724 9.34336 99.4109 9.99624 98.9292 10.7438V19.2412H96.6865V10.9681C96.6865 10.071 96.4788 9.34336 96.0635 8.78518C95.6482 8.23032 95.075 7.95289 94.3441 7.95289C93.6131 7.95289 92.9237 8.22201 92.2758 8.76026C91.6279 9.30183 91.0631 9.93809 90.5813 10.669V19.2412ZM113.756 19.2412H111.389V1.79792H121.73V3.84127H113.756V9.17391H120.409V11.1176H113.756V19.2412ZM126.091 19.2412H123.848V6.28332H126.091V19.2412ZM124.969 4.06554C124.538 4.06554 124.167 3.90772 123.858 3.59208C123.552 3.27644 123.4 2.91096 123.4 2.49565C123.4 2.01388 123.541 1.63179 123.823 1.34938C124.106 1.06696 124.488 0.925755 124.969 0.925755C125.401 0.925755 125.77 1.07859 126.076 1.38426C126.385 1.69326 126.539 2.06372 126.539 2.49565C126.539 2.9608 126.398 3.3379 126.116 3.62696C125.833 3.91935 125.451 4.06554 124.969 4.06554ZM132.321 19.2412H130.078V6.28332H132.246V9.09916C132.462 8.55094 132.752 8.03927 133.118 7.56415C133.483 7.09235 133.94 6.71026 134.488 6.41788C135.037 6.12882 135.676 5.98429 136.407 5.98429C136.656 5.98429 136.906 5.99592 137.155 6.01918C137.404 6.04576 137.612 6.08397 137.778 6.13381L137.105 8.45126C136.789 8.31836 136.416 8.25191 135.984 8.25191C135.369 8.25191 134.782 8.42635 134.224 8.77521C133.669 9.12407 133.213 9.66398 132.854 10.3949C132.498 11.1259 132.321 12.0562 132.321 13.1859V19.2412ZM144.451 19.5402C142.59 19.5402 141.117 18.9454 140.03 17.756C138.941 16.5698 138.396 14.9053 138.396 12.7622C138.396 11.4665 138.642 10.3069 139.133 9.28356C139.622 8.26354 140.306 7.45783 141.187 6.86642C142.067 6.27834 143.089 5.98429 144.252 5.98429C145.498 5.98429 146.533 6.25342 147.357 6.79167C148.177 7.33324 148.795 8.06087 149.211 8.97456C149.626 9.88825 149.834 10.8933 149.834 11.9897C149.834 12.5712 149.809 13.136 149.759 13.6842H140.688C140.838 14.897 141.261 15.8439 141.959 16.525C142.657 17.2061 143.579 17.5467 144.725 17.5467C145.473 17.5467 146.146 17.4669 146.744 17.3074C147.342 17.1513 147.915 16.9486 148.463 16.6994L148.986 18.6182C148.388 18.884 147.715 19.1049 146.968 19.281C146.22 19.4538 145.381 19.5402 144.451 19.5402ZM140.663 11.8652H147.765C147.765 10.6026 147.45 9.63076 146.818 8.94964C146.187 8.26853 145.315 7.92797 144.202 7.92797C143.238 7.92797 142.441 8.26354 141.81 8.93469C141.178 9.60916 140.796 10.586 140.663 11.8652Z"
                                    fill="#252422" />
                            </g>
                        </g>
                    </g>
                </g>
                <g clip-path="url(#clip7_2_40)">
                    <g clip-path="url(#clip8_2_40)">
                        <path
                            d="M35.5609 17.3317C34.6829 16.1358 33.5755 15.1807 32.3701 14.3292C31.7291 13.8779 31.037 13.5046 30.4202 13.0155C29.764 12.4947 29.0951 11.989 28.4201 11.4941C26.5855 10.1464 24.6919 8.88286 22.8332 7.5687C22.0579 7.01995 21.7088 6.21527 21.6567 5.2824C21.6345 4.87841 21.8261 4.72419 22.2457 4.76298C22.6241 4.79846 22.9988 4.85712 23.3616 4.97254C24.0116 5.18022 24.6744 5.31646 25.3603 5.32072C25.6962 5.32261 26.0165 5.24266 26.2927 5.06195C26.9361 4.64424 27.4773 4.11536 27.9111 3.48051C27.921 3.46727 27.9025 3.43463 27.8912 3.38543C27.4394 3.38543 26.9815 3.39253 26.524 3.38165C26.3627 3.37786 26.2582 3.43747 26.1508 3.54911C25.8537 3.85896 25.4814 4.04677 25.0718 4.15652C24.2406 4.37791 23.4652 4.14989 22.6175 3.84477C23.3616 3.77145 24.0902 3.99426 24.7212 3.36935C24.1815 3.36935 23.7283 3.35231 23.276 3.3736C22.8271 3.39536 22.459 3.74212 21.9836 3.7038C22.5021 4.04535 22.9998 4.38169 23.452 4.79657C23.2036 4.76629 22.9733 4.66222 22.7367 4.64897C22.3805 4.62816 22.17 4.41481 21.9581 4.18064C21.906 4.12151 21.8606 4.05765 21.8091 3.99851C21.3597 3.48714 20.9623 2.92893 20.4325 2.49135C20.3364 2.41235 20.256 2.28273 20.0744 2.37166C20.5526 2.9663 20.8842 3.64467 21.2679 4.29228C21.2509 4.31499 21.2338 4.3377 21.2173 4.35946C20.7522 4.32776 20.3852 4.14658 20.0909 3.82017C20.0237 3.74543 19.9594 3.66264 19.8993 3.57181C19.6968 3.26716 19.5299 2.93318 19.307 2.65502C18.9962 2.2657 18.7105 1.86028 18.4158 1.46102C18.3155 1.32525 18.1873 1.25288 18.0374 1.19847C17.5719 1.02865 17.1035 0.864493 16.6423 0.684257C16.0051 0.434482 15.3556 0.506861 14.7056 0.593431C14.2571 0.653037 14.0282 0.95674 14.0774 1.46291C14.1152 1.85413 14.146 2.25198 14.0845 2.63989C14.0206 3.04388 14.0887 3.42753 14.2046 3.8003C14.417 4.48482 14.6588 5.16035 14.8958 5.83777C15.164 6.60413 15.4535 7.36954 15.9147 8.03703C16.8708 9.42072 17.9631 10.6975 19.2451 11.7893C20.7499 13.0723 22.2977 14.3041 23.8148 15.5733C24.6985 16.3132 25.5765 17.064 26.3135 17.958C26.6423 18.3559 26.9342 18.7712 26.8699 19.3365C26.9947 19.346 27.0979 19.3597 27.2015 19.3607C28.0402 19.373 28.8794 19.3843 29.7181 19.3933C30.0952 19.3976 30.116 19.3663 30.0668 18.9893C30.046 18.8308 29.9868 18.6875 29.9187 18.5456C29.7882 18.2721 29.6108 18.0304 29.4215 17.7944C28.7498 16.9589 27.9025 16.3132 27.0737 15.6528C25.2624 14.2081 23.425 12.7965 21.608 11.3588C20.9202 10.8158 20.2035 10.3035 19.5947 9.66672C18.9608 9.00349 18.3699 8.30288 17.7866 7.59377C17.3297 7.03887 17.0165 6.43241 16.8079 5.74127C16.5969 5.04208 16.6896 4.39588 16.9436 3.75205C17.1144 3.32062 17.4375 3.1839 17.8869 3.31873C18.2616 3.43226 18.6353 3.551 19.0048 3.6792C19.3823 3.81024 19.7541 3.95783 20.1288 4.09786C20.0162 4.14989 19.9149 4.14942 19.8132 4.14989C19.149 4.15415 19.0171 4.26721 18.8127 4.89875C18.7105 5.21428 18.7815 5.49149 18.9097 5.76728C19.0147 5.99341 19.1334 6.21196 19.2579 6.42626C19.7948 7.35061 20.4344 8.20449 21.2745 8.86393C24.0031 11.0055 26.8656 12.9682 29.6221 15.0728C30.4135 15.6774 31.2078 16.2773 31.8947 17.0039C32.5433 17.6898 33.1663 18.3951 33.2098 19.4657C34.1786 19.4657 35.1219 19.4657 36.0642 19.4661C36.429 19.4661 36.4474 19.4444 36.3878 19.0877C36.2776 18.4259 35.9483 17.8615 35.5609 17.3317Z"
                            fill="#EB5E28" />
                        <path
                            d="M10.9859 16.9097C10.5753 16.1079 10.1335 15.3221 9.73847 14.5132C9.00381 13.0065 8.38694 11.4747 8.23036 9.76748C8.0804 8.13164 8.25969 6.55824 8.70956 4.99667C8.83493 4.56193 8.99719 4.13996 9.16607 3.72272C8.96312 3.61486 8.84391 3.73549 8.71335 3.81686C8.10263 4.19862 7.54442 4.65938 6.9337 5.03641C6.30689 5.42384 5.8064 5.91583 5.41376 6.52938C5.17723 6.8979 4.84798 7.2016 4.66301 7.60607C4.81818 7.61506 4.91421 7.51761 5.00882 7.42536C5.02112 7.41353 5.03342 7.40218 5.04619 7.38988C5.04714 7.38893 5.04856 7.38846 5.0495 7.38704C5.06464 7.37332 5.08025 7.36055 5.09539 7.34731C5.81586 6.78011 6.46442 6.13012 7.15746 5.53217C7.25774 5.4456 7.34242 5.32166 7.48954 5.31031C7.56854 5.45791 7.45596 5.50095 7.3973 5.55441C6.52072 6.34536 5.75483 7.24039 4.96956 8.11839C4.42885 8.72343 3.8853 9.33274 3.23816 9.82566C2.76415 10.1871 2.36631 10.6005 2.02145 11.084C1.42728 11.9161 0.804738 12.7288 0.186449 13.56C0.241324 13.5699 0.273965 13.587 0.289103 13.5766C0.377092 13.5203 0.461297 13.4583 0.545028 13.3958C1.90981 12.3788 3.0565 11.1455 4.09581 9.80722C4.58496 9.17805 5.0689 8.54509 5.5552 7.91403C5.57886 7.95187 5.60251 7.98972 5.62616 8.02756C5.25434 8.62504 4.88299 9.22393 4.51069 9.82093C3.44914 11.5235 2.27832 13.1413 0.887523 14.5955C0.651467 14.841 0.407368 15.0776 0.161377 15.3122V17.5082C0.300456 17.2901 0.436225 17.0701 0.60558 16.8747C1.34497 16.0242 2.03091 15.1334 2.62129 14.1726C3.70932 12.4043 4.66538 10.5632 5.59399 8.7083C5.93791 8.02047 6.31257 7.35109 6.76151 6.72523C6.788 6.74415 6.81449 6.7626 6.84098 6.78152C6.70947 7.05211 6.56424 7.31703 6.44976 7.59377C5.80309 9.16149 5.12945 10.7179 4.58165 12.3253C4.2822 13.2028 3.94396 14.0662 3.54943 14.9049C3.44205 15.1343 3.37582 15.368 3.34034 15.6145C3.31006 15.8217 3.2831 16.0289 3.24998 16.2356C3.07968 17.2943 2.69887 18.2499 1.89136 18.995C1.87811 19.0068 1.8871 19.0437 1.88379 19.1047C2.85451 19.1047 3.82239 19.1 4.79074 19.1095C4.95915 19.1104 5.05471 19.03 5.15026 18.916C5.54385 18.4439 5.71699 17.8918 5.74963 17.2882C5.78653 16.6183 5.71888 15.9527 5.63704 15.2895C5.53155 14.4323 5.43173 13.5922 5.65691 12.7241C5.92466 11.6886 5.98474 10.6057 6.30548 9.57825C6.65034 8.47035 6.9389 7.34163 7.41338 6.27724C7.62342 5.80655 7.85617 5.34626 8.16886 4.91862C8.27577 5.09412 8.15892 5.21996 8.10925 5.34342C7.66268 6.43761 7.39493 7.58147 7.18821 8.73952C6.98006 9.90656 7.0373 11.0911 7.00892 12.269C7.00655 12.3466 7.02074 12.4265 7.03966 12.5018C7.17874 13.06 7.31499 13.6182 7.464 14.1736C7.71851 15.1187 8.08513 16.0303 8.31456 16.9826C8.48912 17.7059 8.60265 18.4306 8.08371 19.0815C8.07614 19.0915 8.09743 19.1237 8.11398 19.1705C9.02273 19.1705 9.93999 19.1695 10.8568 19.1705C11.2551 19.1705 11.3227 19.1175 11.4202 18.7391C11.4632 18.5716 11.4722 18.4065 11.4491 18.2338C11.3852 17.7603 11.2007 17.3279 10.9859 16.9097Z"
                            fill="#EB5E28" />
                        <path
                            d="M4.65885 7.61395C4.65885 7.61395 4.65996 7.61396 4.66106 7.61285C4.66216 7.61064 4.66382 7.60843 4.66437 7.60567C4.65996 7.60512 4.65554 7.60512 4.65112 7.60512C4.65444 7.60843 4.65609 7.61175 4.65885 7.61395Z"
                            fill="#EB5E28" />
                        <path
                            d="M4.6511 7.65893C4.65688 7.65749 4.66122 7.65508 4.66411 7.65171C4.66604 7.6493 4.66652 7.64641 4.667 7.644C4.66748 7.64304 4.66844 7.64207 4.66893 7.64015C4.66893 7.63629 4.66893 7.63292 4.667 7.62859V7.62762C4.66555 7.62281 4.66266 7.61799 4.65881 7.61269C4.64099 7.62184 4.62317 7.63148 4.60535 7.64111C4.62076 7.64785 4.63858 7.66327 4.6511 7.65893Z"
                            fill="#EB5E28" />
                        <path
                            d="M42.7348 19.285C42.6714 18.8961 42.5887 18.5063 42.4184 18.1567C42.0801 17.4675 42.0806 16.7451 42.1322 16.0109C42.1785 15.3311 42.197 14.6504 42.1823 13.9692C42.1771 13.7445 42.1061 13.5766 41.9671 13.4048C41.3989 12.7038 40.8506 11.9861 40.282 11.2846C40.0223 10.9648 39.7952 10.6152 39.4901 10.3243C39.4097 10.4274 39.4438 10.5211 39.4357 10.6067C39.3823 11.1687 39.1419 11.3707 38.5847 11.3243C38.2531 11.2964 37.9503 11.1725 37.6561 11.0339C36.9843 10.715 36.3249 10.3702 35.6489 10.0627C34.259 9.43019 32.8167 8.92969 31.3724 8.43913C30.7607 8.23145 30.3061 7.90315 30.124 7.26168C30.0857 7.12923 30.0095 7.03319 29.8894 6.96223C29.7943 6.90641 29.6774 6.86668 29.6486 6.80045C30.185 5.66369 30.703 4.56666 31.2456 3.41807C30.7281 3.41807 30.2834 3.43084 29.8402 3.41287C29.6278 3.40341 29.5147 3.47247 29.4125 3.65886C28.9906 4.4238 28.5511 5.17833 28.1187 5.93664C27.9158 6.29333 27.9167 6.29428 27.5283 6.22048C27.1816 6.15425 26.8339 6.09606 26.49 6.01611C26.269 5.96408 26.0495 5.96503 25.8272 5.9603C25.6157 5.95509 25.454 6.04119 25.3092 6.21859C25.594 6.46883 25.9076 6.65427 26.2137 6.84302C27.0122 7.33359 27.7913 7.85159 28.6712 8.20827C29.3435 8.48028 30.0351 8.75182 30.52 9.34693C31.2262 10.2136 32.1085 10.9052 32.8843 11.7028C33.179 12.0051 33.5201 12.2378 33.8834 12.453C35.6281 13.4834 37.157 14.7535 38.2772 16.4665C38.8591 17.3549 39.3988 18.2646 39.5114 19.354C39.5289 19.5158 39.6424 19.4893 39.7423 19.4907C40.6718 19.5068 41.6019 19.5139 42.5319 19.5399C42.7519 19.5452 42.7642 19.4638 42.7348 19.285Z"
                            fill="#EB5E28" />
                        <path
                            d="M23.5726 18.3757C23.3867 18.0578 23.1591 17.7707 22.9117 17.4992C21.9916 16.4892 20.9523 15.6065 19.9229 14.7128C18.5364 13.5108 17.1461 12.3154 15.9776 10.8872C15.2467 9.99313 14.5584 9.07965 14.1038 8.00486C13.6303 6.88749 13.2178 5.74553 12.7622 4.62106C12.6884 4.43894 12.6605 4.24498 12.6482 4.04677C12.6189 3.57655 12.5758 3.10774 12.5318 2.63847C12.4685 1.95111 12.6 1.28694 13.0016 0.698925C13.0352 0.649727 13.1 0.604786 13.0139 0.502132C12.7424 0.666757 12.4727 0.845573 12.1893 0.998845C11.6784 1.27464 11.4079 1.70985 11.3038 2.26523C11.2896 2.34328 11.2797 2.42086 11.2726 2.49844C11.212 3.19337 11.2957 3.88404 11.3184 4.57659C11.3388 5.21901 11.5053 5.81175 11.7395 6.39882C12.0635 7.21059 12.3611 8.03324 12.6979 8.84028C13.0101 9.58724 13.3635 10.3158 13.8299 10.9847C14.7254 12.2695 15.7785 13.4157 16.8911 14.5108C17.8069 15.4106 18.7559 16.2782 19.6131 17.2376C19.9281 17.589 20.2323 17.9514 20.4471 18.3734C20.5838 18.6392 20.7073 18.9183 20.5294 19.3209C21.5138 19.3209 22.4301 19.3209 23.3455 19.3214C23.7949 19.3214 23.8895 19.1989 23.7552 18.7646C23.7126 18.6298 23.6454 18.4983 23.5726 18.3757Z"
                            fill="#EB5E28" />
                        <path
                            d="M17.0463 17.6141C16.3902 16.6775 15.5808 15.8699 14.8348 15.0095C13.8915 13.92 12.9619 12.8197 12.2509 11.5575C11.6483 10.4846 11.1889 9.34646 10.8005 8.18273C10.6061 7.60229 10.3861 7.0261 10.3024 6.41396C10.1401 5.23368 10.2759 4.06191 10.3857 2.88777C10.4032 2.69571 10.5678 2.54906 10.537 2.34848C10.4585 2.34281 10.4202 2.37687 10.379 2.40904C9.86672 2.82344 9.58383 3.37171 9.46462 4.00656C9.37994 4.45644 9.32222 4.91152 9.24512 5.36282C9.1084 6.15567 9.06062 6.95609 9.18267 7.74941C9.42062 9.30908 9.8951 10.7959 10.5919 12.2151C11.2821 13.6205 12.1899 14.8817 13.0953 16.1472C13.4979 16.7106 13.9227 17.2603 14.2236 17.889C14.4204 18.2986 14.5344 18.7197 14.278 19.2457C15.2955 19.2457 16.2384 19.2466 17.1807 19.2452C17.4981 19.2448 17.5591 19.1799 17.5695 18.8597C17.5757 18.6719 17.5298 18.495 17.4574 18.3251C17.3482 18.073 17.2043 17.8393 17.0463 17.6141Z"
                            fill="#EB5E28" />
                        <path
                            d="M31.7774 7.43387C32.1431 7.62073 32.4908 7.537 32.8196 7.34636C33.18 7.13727 33.5519 6.93243 33.6758 6.48066C33.8963 5.67646 34.1181 4.87226 34.3504 4.07089C34.3925 3.92661 34.3679 3.82869 34.2842 3.71231C34.1446 3.51741 33.9899 3.40199 33.7297 3.43699C33.5372 3.46348 33.3366 3.45781 33.1422 3.43652C32.9095 3.4105 32.8011 3.49187 32.7193 3.71894C32.4071 4.58937 32.066 5.44986 31.7438 6.31604C31.6232 6.63961 31.4728 6.93811 31.1691 7.18221C31.3739 7.32554 31.592 7.33974 31.7774 7.43387Z"
                            fill="#EB5E28" />
                        <path
                            d="M33.5722 7.84496C33.4118 7.83881 33.2538 7.82226 33.0315 7.8847C33.8721 8.14772 34.6248 8.46609 35.3935 8.74094C35.7374 8.86393 36.0912 8.95902 36.4664 8.94341C36.9806 8.92212 37.2621 8.69174 37.369 8.18746C37.3879 8.09758 37.3879 8.00391 37.4125 7.91592C37.4499 7.77684 37.4182 7.6652 37.3283 7.55308C36.8112 6.91209 36.3008 6.26636 35.7577 5.58421C35.6787 5.71667 35.6735 5.82074 35.6551 5.92245C35.586 6.30847 35.5255 6.69637 35.3873 7.06536C35.2019 7.55829 34.8372 7.81563 34.3182 7.84638C34.0708 7.86199 33.8206 7.85584 33.5722 7.84496Z"
                            fill="#EB5E28" />
                        <path
                            d="M7.39209 3.88262C7.7923 3.71657 8.08749 3.51221 8.40396 3.33103C7.87792 3.12383 7.65748 3.46632 7.39209 3.88262Z"
                            fill="#EB5E28" />
                    </g>
                </g>
            </g>
        </g>
    </g>
    <defs>
        <clipPath id="clip0_2_40">
            <rect width="150" height="19.3" fill="white" transform="translate(0 0.371155)" />
        </clipPath>
        <clipPath id="clip1_2_40">
            <rect width="149.677" height="19.1332" fill="white"
                transform="translate(0.161377 0.454536)" />
        </clipPath>
        <clipPath id="clip2_2_40">
            <rect width="149.677" height="19.1332" fill="white"
                transform="translate(0.161377 0.454536)" />
        </clipPath>
        <clipPath id="clip3_2_40">
            <rect width="96.3863" height="19.038" fill="white"
                transform="translate(53.4521 0.502132)" />
        </clipPath>
        <clipPath id="clip4_2_40">
            <rect width="96.3863" height="19.038" fill="white"
                transform="translate(53.4521 0.502132)" />
        </clipPath>
        <clipPath id="clip5_2_40">
            <rect width="96.3863" height="19.038" fill="white"
                transform="translate(53.4521 0.502132)" />
        </clipPath>
        <clipPath id="clip6_2_40">
            <rect width="96.3863" height="19.038" fill="white"
                transform="translate(53.4521 0.502132)" />
        </clipPath>
        <clipPath id="clip7_2_40">
            <rect width="42.5851" height="19.038" fill="white"
                transform="translate(0.161377 0.502132)" />
        </clipPath>
        <clipPath id="clip8_2_40">
            <rect width="42.5851" height="19.038" fill="white"
                transform="translate(0.161377 0.502132)" />
        </clipPath>
    </defs>
</svg>    