<svg width="150" height="22" viewBox="0 0 150 22" fill="none" xmlns="http://www.w3.org/2000/svg">
    <g clip-path="url(#clip0_165_49)">
        <g clip-path="url(#clip1_165_49)">
            <g clip-path="url(#clip2_165_49)">
                <path
                    d="M29.7666 1.39287C29.7666 0.605051 29.3012 -0.0335999 28.7271 -0.0335999C28.1529 -0.0335999 27.6875 0.605051 27.6875 1.39287V20.6071C27.6875 21.395 28.1529 22.0336 28.7271 22.0336C29.3012 22.0336 29.7666 21.395 29.7666 20.6071V1.39287Z"
                    fill="#252422" />
                <g clip-path="url(#clip3_165_49)">
                    <g clip-path="url(#clip4_165_49)">
                        <g clip-path="url(#clip5_165_49)">
                            <g clip-path="url(#clip6_165_49)">
                                <path
                                    d="M43.4773 6.15688V8.28729H40.0473V21.7231H37.3332V8.28729H35.2156V6.15688H37.3332V5.04907C37.3332 3.30687 37.8064 2.03241 38.7529 1.22569C39.6954 0.422765 41.2105 0.0213013 43.2984 0.0213013V2.18012C42.1053 2.18012 41.2662 2.40168 40.7811 2.84481C40.2919 3.29172 40.0473 4.02647 40.0473 5.04907V6.15688H43.4773ZM48.0406 3.6288C47.5237 3.6288 47.0862 3.45836 46.7283 3.1175C46.3704 2.77663 46.1914 2.36002 46.1914 1.86766C46.1914 1.3753 46.3704 0.958681 46.7283 0.617816C47.0862 0.27695 47.5237 0.106519 48.0406 0.106519C48.5377 0.106519 48.9593 0.27695 49.3053 0.617816C49.6552 0.958681 49.8302 1.3753 49.8302 1.86766C49.8302 2.36002 49.6552 2.77663 49.3053 3.1175C48.9593 3.45836 48.5377 3.6288 48.0406 3.6288ZM46.6388 6.15688H49.353V21.7231H46.6388V6.15688ZM56.6841 8.68497C57.1614 7.79493 57.8434 7.10373 58.7302 6.61137C59.617 6.11901 60.6947 5.87283 61.9633 5.87283V8.54294H61.2534C58.2072 8.54294 56.6841 10.1147 56.6841 13.2583V21.7231H53.97V6.15688H56.6841V8.68497ZM80.0079 13.3435C80.0079 13.8358 79.978 14.3566 79.9184 14.9058H66.8547C66.9541 16.4397 67.5069 17.6365 68.513 18.4962C69.5152 19.3597 70.7321 19.7915 72.1637 19.7915C73.3368 19.7915 74.3171 19.5302 75.1045 19.0075C75.8879 18.4886 76.4387 17.7937 76.7569 16.9226H79.6798C79.2423 18.4186 78.3675 19.6362 77.0551 20.5755C75.7428 21.511 74.1123 21.9787 72.1637 21.9787C70.6128 21.9787 69.2269 21.6473 68.006 20.9845C66.7811 20.3217 65.8208 19.3787 65.1248 18.1554C64.4289 16.9358 64.0809 15.5212 64.0809 13.9116C64.0809 12.3019 64.419 10.8911 65.095 9.67916C65.7711 8.46719 66.7215 7.5336 67.9463 6.87838C69.1672 6.22695 70.573 5.90123 72.1637 5.90123C73.7146 5.90123 75.0866 6.22316 76.2797 6.86702C77.4727 7.51088 78.3933 8.39523 79.0415 9.52009C79.6858 10.6487 80.0079 11.9232 80.0079 13.3435ZM77.2042 12.8038C77.2042 11.819 76.9756 10.9707 76.5183 10.2586C76.0609 9.55039 75.4406 9.01069 74.6571 8.63952C73.8697 8.27214 72.9988 8.08846 72.0444 8.08846C70.6724 8.08846 69.5052 8.50507 68.5429 9.3383C67.5765 10.1715 67.0237 11.3267 66.8845 12.8038H77.2042ZM90.2381 6.15688V8.28729H86.8081V21.7231H84.094V8.28729H81.9764V6.15688H84.094V5.04907C84.094 3.30687 84.5672 2.03241 85.5137 1.22569C86.4562 0.422765 87.9713 0.0213013 90.0591 0.0213013V2.18012C88.8661 2.18012 88.027 2.40168 87.5419 2.84481C87.0527 3.29172 86.8081 4.02647 86.8081 5.04907V6.15688H90.2381ZM100.528 21.9787C98.9969 21.9787 97.609 21.6473 96.3643 20.9845C95.1236 20.3217 94.1492 19.3787 93.4414 18.1554C92.7375 16.9358 92.3855 15.5212 92.3855 13.9116C92.3855 12.3209 92.7474 10.9139 93.4712 9.69052C94.199 8.47098 95.1892 7.5336 96.4419 6.87838C97.6945 6.22695 99.0963 5.90123 100.647 5.90123C102.198 5.90123 103.6 6.22695 104.853 6.87838C106.105 7.5336 107.094 8.46719 107.817 9.67916C108.545 10.8911 108.909 12.3019 108.909 13.9116C108.909 15.5212 108.535 16.9358 107.788 18.1554C107.044 19.3787 106.036 20.3217 104.763 20.9845C103.491 21.6473 102.079 21.9787 100.528 21.9787ZM100.528 19.7063C101.502 19.7063 102.417 19.4885 103.272 19.053C104.127 18.6174 104.817 17.9641 105.342 17.093C105.871 16.2219 106.135 15.1614 106.135 13.9116C106.135 12.6617 105.877 11.6013 105.36 10.7302C104.843 9.85906 104.167 9.20952 103.332 8.78155C102.496 8.35736 101.592 8.14527 100.617 8.14527C99.6233 8.14527 98.7126 8.35736 97.8854 8.78155C97.0622 9.20952 96.4021 9.85906 95.905 10.7302C95.4079 11.6013 95.1593 12.6617 95.1593 13.9116C95.1593 15.1804 95.4019 16.2503 95.8871 17.1214C96.3762 17.9925 97.0284 18.642 97.8437 19.07C98.6589 19.4942 99.5537 19.7063 100.528 19.7063ZM115.202 8.68497C115.679 7.79493 116.359 7.10373 117.242 6.61137C118.129 6.11901 119.209 5.87283 120.481 5.87283V8.54294H119.766C116.723 8.54294 115.202 10.1147 115.202 13.2583V21.7231H112.488V6.15688H115.202V8.68497ZM143.262 5.87283C144.535 5.87283 145.668 6.1228 146.662 6.62273C147.657 7.12646 148.442 7.88015 149.019 8.88381C149.595 9.88747 149.884 11.1089 149.884 12.5481V21.7231H147.199V12.9174C147.199 11.3646 146.798 10.1753 145.994 9.34966C145.187 8.52779 144.097 8.11686 142.725 8.11686C141.314 8.11686 140.19 8.54673 139.355 9.40647C138.52 10.27 138.102 11.516 138.102 13.1446V21.7231H135.418V12.9174C135.418 11.3646 135.016 10.1753 134.213 9.34966C133.406 8.52779 132.316 8.11686 130.944 8.11686C129.533 8.11686 128.409 8.54673 127.574 9.40647C126.739 10.27 126.321 11.516 126.321 13.1446V21.7231H123.607V6.15688H126.321V8.40091C126.858 7.58662 127.58 6.9617 128.487 6.52615C129.389 6.0906 130.388 5.87283 131.481 5.87283C132.853 5.87283 134.066 6.16635 135.12 6.7534C136.174 7.34044 136.959 8.20208 137.476 9.3383C137.933 8.23995 138.689 7.38779 139.743 6.7818C140.797 6.17582 141.97 5.87283 143.262 5.87283Z"
                                    fill="#252422" />
                            </g>
                        </g>
                    </g>
                </g>
                <g clip-path="url(#clip7_165_49)">
                    <g clip-path="url(#clip8_165_49)">
                        <path
                            d="M19.2586 4.12386C21.1107 6.00831 22.2448 8.54182 22.2448 11.3265C22.2448 17.1475 17.2898 21.8689 11.1777 21.8689C5.0656 21.8689 0.110596 17.1543 0.110596 11.3335C0.110596 9.56148 0.569755 7.90139 1.38057 6.43581L1.3813 6.4491C1.34114 6.73364 1.32033 7.0303 1.32033 7.32533C1.32033 8.9411 1.9416 10.6625 2.96865 11.5954H2.96816C2.56508 10.6625 2.34321 9.63448 2.34321 8.56001C2.34346 5.37581 4.29323 2.49993 7.11773 1.33381C5.44909 2.49993 4.38947 4.64722 4.38947 6.89363C4.38947 10.9485 7.84112 14.1812 12.0989 14.1812C16.357 14.1812 19.8086 10.899 19.8086 6.84419C19.8086 5.88097 19.614 4.96394 19.2599 4.1213M18.7517 5.97053C18.4407 8.6624 16.045 10.756 13.136 10.756C10.0157 10.756 7.48628 8.34708 7.48628 5.37558C7.48628 2.81944 9.35794 0.679382 11.8675 0.131073L11.8553 0.133405C8.24812 0.241854 5.35872 3.0613 5.35872 6.52327C5.35872 10.0538 8.36371 12.9157 12.0708 12.9157C15.7783 12.9157 18.7836 10.0538 18.7836 6.52327C18.7836 6.32643 18.774 6.13192 18.7559 5.93974M9.271 7.27705C10.0135 8.77971 11.6175 9.82152 13.4769 9.82152C16.0428 9.82152 18.1229 7.92471 18.1229 5.48146C18.1229 5.06446 18.0624 4.83216 17.9487 4.36572H17.9495C17.3064 6.46473 15.0929 8.29647 12.4616 8.29647C11.2862 8.29647 10.1942 7.90862 9.28839 7.32579"
                            fill="#FF0033" />
                    </g>
                </g>
            </g>
        </g>
    </g>
    <defs>
        <clipPath id="clip0_165_49">
            <rect width="150" height="22" fill="white" />
        </clipPath>
        <clipPath id="clip1_165_49">
            <rect width="149.779" height="22.0672" fill="white"
                transform="translate(0.110596 -0.0335999)" />
        </clipPath>
        <clipPath id="clip2_165_49">
            <rect width="149.779" height="22.0672" fill="white"
                transform="translate(0.110596 -0.0335999)" />
        </clipPath>
        <clipPath id="clip3_165_49">
            <rect width="114.68" height="21.9574" fill="white"
                transform="translate(35.2095 0.0213013)" />
        </clipPath>
        <clipPath id="clip4_165_49">
            <rect width="114.68" height="21.9574" fill="white"
                transform="translate(35.2095 0.0213013)" />
        </clipPath>
        <clipPath id="clip5_165_49">
            <rect width="114.68" height="21.9574" fill="white"
                transform="translate(35.2095 0.0213013)" />
        </clipPath>
        <clipPath id="clip6_165_49">
            <rect width="114.68" height="21.9574" fill="white"
                transform="translate(35.2095 0.0213013)" />
        </clipPath>
        <clipPath id="clip7_165_49">
            <rect width="22.1342" height="21.7379" fill="white"
                transform="translate(0.110596 0.131073)" />
        </clipPath>
        <clipPath id="clip8_165_49">
            <rect width="22.1342" height="21.7379" fill="white"
                transform="translate(0.110596 0.131073)" />
        </clipPath>
    </defs>
</svg>
    