<svg width="24" height="24" viewBox="0 0 24 24" fill="none" xmlns="http://www.w3.org/2000/svg">
    <g clip-path="url(#clip0_108_21)">
        <path
            d="M20.4847 3.5153C19.1983 2.22694 17.6158 1.22855 15.8492 0.631781C15.8492 0.631781 15.8492 0.631781 15.8471 0.631781C15.1849 0.405797 14.4993 0.238219 13.7901 0.133594C13.2379 0.0503437 12.6714 0.00557813 12.0955 0.00140625C12.0631 0 12.0326 0 12 0C9.98981 0 8.09156 0.496031 6.42591 1.37339C5.34848 1.938 4.36692 2.66142 3.5153 3.5153C1.34456 5.68416 0 8.68866 0 12C0 15.311 1.34456 18.3158 3.5153 20.4847C5.68416 22.6557 8.68884 24 12 24C12.3339 24 12.6639 23.9857 12.9907 23.9602C13.6115 23.9098 14.2178 23.8104 14.8078 23.6698C16.995 23.1447 18.9492 22.0222 20.4847 20.4847C22.6555 18.3158 24 15.311 24 12C24 8.68866 22.6555 5.68416 20.4847 3.5153ZM14.3441 2.07511C14.2431 1.93059 13.8587 1.93059 13.4741 1.84809C13.1407 1.77778 12.9908 1.66233 13.1162 1.50459C13.5617 1.55147 13.9999 1.62314 14.4272 1.72355C14.7541 1.80084 15.0773 1.89389 15.3911 2.00063C15.4027 2.00447 15.4135 2.00967 15.425 2.01356C15.3844 2.16361 15.3456 2.29167 15.2751 2.34206C15.2499 2.36198 15.2211 2.36902 15.1848 2.3662C14.8457 2.31511 14.9088 2.631 14.5571 2.89439C14.2033 3.15952 14.003 2.81672 14.2935 2.3662C14.382 2.2283 14.391 2.13839 14.3441 2.07511ZM4.53567 19.4643C2.62448 17.5512 1.44352 14.9185 1.44352 12C1.44352 9.08536 2.62256 6.45441 4.53028 4.54125C4.53206 4.53984 4.53398 4.53778 4.53572 4.53567C4.92525 4.1467 5.34605 3.78952 5.79155 3.46486C5.40956 3.86367 4.8112 4.52025 4.80173 4.65005C4.79827 4.677 4.79283 4.72805 4.78566 4.79625C4.74769 5.13698 4.66655 5.89716 4.65553 6.0143C4.64119 6.15319 4.82906 6.21652 4.98403 6.31584C5.09775 6.38794 4.98773 6.94167 4.98403 7.3335C4.97878 7.7197 5.39925 8.65439 5.57606 8.62537C5.74748 8.58581 5.29641 7.18027 5.29819 7.1873C5.29819 7.1873 5.31272 6.69263 5.51644 6.68911C5.72039 6.68705 5.63728 7.18378 5.67722 7.50666C5.71327 7.82606 6.18216 8.41439 6.31406 8.56416C6.44227 8.71387 6.24375 9.37467 6.27084 9.48623C6.28692 9.59119 7.53033 10.4336 7.6477 10.4839C7.75598 10.5273 8.10056 10.4314 8.28647 10.4804C8.47031 10.5294 8.47762 10.9495 8.62387 11.0363C8.7682 11.1191 9.45033 11.2038 9.60197 11.2531C9.75347 11.3017 9.71198 11.8751 9.89423 12.0055C10.0783 12.1335 10.6502 12.7919 10.6502 12.7919C10.6502 12.7919 11.1321 12.5555 11.2513 12.489C11.372 12.42 11.5852 12.6677 11.5852 12.6677C11.5852 12.6677 11.5527 13.6693 11.5382 13.8602C11.5256 14.0516 10.7514 14.6144 10.7514 14.6144C10.7514 14.6144 10.6412 15.6072 10.6521 15.9857C10.6647 16.3705 11.3939 17.3177 11.3954 17.3177C11.3975 17.3198 11.6065 18.0377 11.6718 18.1496C11.7439 18.2724 12.922 19.2235 12.9259 19.2235C12.9259 19.2522 12.7545 21.0565 12.7183 21.3745C12.684 21.7096 12.922 21.8471 12.9007 22.0424C12.8986 22.071 12.8933 22.1085 12.8896 22.1574C12.879 22.2515 12.8645 22.3802 12.8486 22.5205C12.5689 22.5425 12.2859 22.5562 12.0001 22.5562C9.0817 22.5563 6.44916 21.3753 4.53567 19.4643ZM19.4643 19.4643C18.786 20.1409 18.018 20.7271 17.1773 21.2001C17.0431 21.2764 16.906 21.3477 16.7682 21.4177C16.8736 21.2078 16.9675 21.0081 17.0004 20.8857C17.0093 20.851 17.0148 20.822 17.0129 20.8027C17.004 20.602 17.5054 20.2305 17.8052 20.1364C18.1065 20.0426 18.1984 19.9324 18.3463 19.4798C18.4946 19.0271 18.5991 18.2705 18.5937 17.9658C18.5991 17.6572 19.2524 16.7946 19.2541 16.4969C19.2686 16.1957 19.1189 15.9701 18.9078 15.7732C18.7037 15.5745 18.166 15.5783 18.0217 15.5402C17.8828 15.5045 17.8197 15.1882 17.5867 15.147C17.3539 15.1057 17.1231 15.3513 16.8453 15.2715C16.5654 15.1903 16.7115 14.9413 16.9102 14.8042C17.1068 14.6688 16.9282 14.1206 16.7587 13.7813C16.5907 13.4434 16.2009 13.4528 15.8599 13.4651C15.5188 13.4798 15.4791 13.0306 15.1614 12.5556C14.8438 12.0795 14.2213 12.1768 13.929 12.1152C13.6386 12.054 13.2163 11.6772 12.9547 11.6174C12.6967 11.5558 11.9892 12.424 11.8321 12.4527C11.6752 12.48 11.6572 12.2092 11.4315 12.1151C11.2079 12.0214 11.0599 12.4744 10.652 12.2127C10.246 11.9514 10.614 11.1301 10.6448 10.7099C10.6735 10.2908 10.293 10.762 9.84356 10.5777C9.396 10.3941 9.72464 10.1107 9.98264 9.74794C10.2389 9.38344 10.291 9.19941 9.86527 9.24628C9.44109 9.29456 9.38353 9.06581 9.32217 9.36347C9.26081 9.66295 9.04233 9.99141 8.47945 9.92109C7.91798 9.85256 7.8893 9.32573 7.92188 8.91609C7.956 8.50678 8.06812 8.5117 8.37122 8.00662C8.67605 7.50323 8.89992 7.51406 9.17423 7.38253C9.45023 7.24852 9.47189 7.43503 9.70102 7.41122C9.93014 7.38811 9.93923 7.27758 10.0295 7.10058C10.1178 6.92564 10.2135 7.14745 10.8559 7.19433C11.4985 7.24331 11.2782 7.29544 11.2782 7.29544C11.2782 7.29544 11.022 7.71272 11.511 8.34769C12 8.98294 12.072 7.87158 12.1046 7.36791C12.1352 6.86063 12.3698 6.73819 12.9058 6.43875C13.4365 6.14072 13.5338 5.66217 14.1185 5.39559C14.7103 5.12484 15.8815 4.91391 16.2081 4.71698C16.542 4.51303 16.0347 3.76233 16.4932 3.72281C16.9498 3.68152 17.4533 3.79139 17.9386 3.71372C17.9403 3.71372 17.9403 3.71372 17.9423 3.71372C18.1469 3.68222 18.2314 3.59756 18.2478 3.49753C18.6786 3.81445 19.0863 4.15973 19.4643 4.53577C21.3755 6.44888 22.5563 9.08156 22.5563 12.0001C22.5563 14.9186 21.3756 17.5512 19.4643 19.4643Z"
            fill="white" />
    </g>
    <defs>
        <clipPath id="clip0_108_21">
            <rect width="24" height="24" fill="white" />
        </clipPath>
    </defs>
</svg>
    